# xmcd
#
# Track frame offsets: 
#        150
#        14110
#        31220
#        47683
#        64722
#        87853
#        101737
#        124956
#        149228
#        166263
#
# Disc length: 2386 seconds
#
# Revision: 0
# Processed by: cddbd v1.5.2PL0 Copyright (c) Steve Scherf et al.
# Submitted via: ExactAudioCopy v1.0b3
#
DISCID=8e09500a
DTITLE=Dave Sadler - Matchbox
DYEAR=2014
DGENRE=Blues
TTITLE0=I Got All You Need
TTITLE1=Matchbox
TTITLE2=Juniors Jam
TTITLE3=Satisfaction Guaranteed
TTITLE4=Cissy Strut
TTITLE5=You Put Me Out
TTITLE6=Fourth Street Ruckus
TTITLE7=You Shoulda Known
TTITLE8=Killing Floor
TTITLE9=People Get Ready
EXTD=
EXTT0=
EXTT1=
EXTT2=
EXTT3=
EXTT4=
EXTT5=
EXTT6=
EXTT7=
EXTT8=
EXTT9=
PLAYORDER=
